<svg xmlns="http://www.w3.org/2000/svg" viewBox="0 0 100 100">
  <g fill="#2E7D32">
    <!-- Top leaf -->
    <path d="M50 10 C30 10 25 30 25 35 C25 45 35 50 50 50 C65 50 75 45 75 35 C75 30 70 10 50 10"/>
    <!-- Left leaf -->
    <path d="M10 50 C10 30 30 25 35 25 C45 25 50 35 50 50 C50 65 45 75 35 75 C30 75 10 70 10 50"/>
    <!-- Right leaf -->
    <path d="M90 50 C90 30 70 25 65 25 C55 25 50 35 50 50 C50 65 55 75 65 75 C70 75 90 70 90 50"/>
    <!-- Stem -->
    <path d="M46 50 Q44 70 40 90 L50 90 Q54 75 54 50 Z"/>
  </g>
</svg>
