<?xml version="1.0" encoding="UTF-8" standalone="no"?>
<!-- Created with Inkscape (http://www.inkscape.org/) -->

<svg
   version="1.1"
   id="svg1"
   width="622.17773"
   height="622.17773"
   viewBox="0 0 622.17773 622.17773"
   sodipodi:docname="shamrock.svg"
   xmlns:inkscape="http://www.inkscape.org/namespaces/inkscape"
   xmlns:sodipodi="http://sodipodi.sourceforge.net/DTD/sodipodi-0.dtd"
   xmlns="http://www.w3.org/2000/svg"
   xmlns:svg="http://www.w3.org/2000/svg">
  <defs
     id="defs1" />
  <sodipodi:namedview
     id="namedview1"
     pagecolor="#ffffff"
     bordercolor="#666666"
     borderopacity="1.0"
     inkscape:showpageshadow="2"
     inkscape:pageopacity="0.0"
     inkscape:pagecheckerboard="0"
     inkscape:deskcolor="#d1d1d1"
     showgrid="false"
     inkscape:zoom="0.70710678"
     inkscape:cx="654.78088"
     inkscape:cy="575.58492"
     inkscape:window-width="960"
     inkscape:window-height="1192"
     inkscape:window-x="0"
     inkscape:window-y="0"
     inkscape:window-maximized="1"
     inkscape:current-layer="g1" />
  <g
     inkscape:groupmode="layer"
     inkscape:label="Image"
     id="g1"
     transform="translate(-158.83398,-217.77596)">
    <path
       id="path4"
       style="fill:#5d8a31;fill-opacity:1"
       d="M 158.83398,217.77596 V 839.9537 h 552.33203 c -2.327,-7.12954 -5.26427,-20.19295 -7.15039,-23.60352 C 680.0385,772.99412 604.53501,675.6515 541.7539,612.11971 c -47.98655,-48.56044 -48.02669,-48.61394 -40.54883,-56.09179 7.18702,-7.18704 8.66769,-6.21806 47.77734,31.25195 62.09774,60.27389 130.09476,161.43332 204.75782,252.67383 h 27.27148 V 217.77596 Z m 250.38281,10.04883 c 22.78122,2.4387 44.12745,15.17905 56.32226,39.66016 4.94114,9.91931 4.48668,9.93627 9.79493,-0.37305 38.49121,-74.75494 160.41112,-32.81575 147.63671,50.78516 -0.46242,3.0263 -1.33657,9.33433 -1.94335,14.01953 -3.73829,28.86383 -15.76682,53.58908 -35.83399,73.65625 -5.89557,5.89557 -7.17386,5.70272 -5.03711,-0.75781 1.55235,-4.69353 11.73088,-41.20481 15.7461,-56.48243 20.47207,-77.89514 -52.55986,-117.1347 -111.65626,-59.99218 -15.59126,15.07578 -14.00967,1.86995 -14.18554,118.45508 -0.0849,56.30675 -0.65793,103.33395 -1.27344,104.50586 -2.15857,4.10992 -6.9866,2.42301 -8.51367,-2.97461 -0.37273,-1.31742 -0.77481,-33.67545 -0.89258,-71.90625 -0.39672,-128.76627 -0.30858,-127.72375 -12.51367,-147.62696 -27.51274,-44.86597 -86.91999,-34.36138 -100.32422,17.74024 -6.61591,25.71579 1.54889,59.65948 27.52734,114.43554 5.49128,11.57833 5.31872,12.17943 -2.40429,8.36133 -71.80348,-35.4981 -121.9196,-39.42324 -149.58399,-11.71289 -26.12563,26.16897 -20.15761,65.59009 12.89063,85.1582 18.77603,11.11751 9.06369,10.49955 178.76367,11.37696 43.59887,0.22541 46.56495,0.68124 44.69141,6.86914 -1.07046,3.53548 -1.6633,3.55638 -92.26563,3.17187 -47.63349,-0.20222 -92.2981,-0.31791 -99.25391,-0.25781 -42.51932,0.36708 -76.82189,64.06033 -54.25,100.73047 20.71727,33.65714 61.35834,37.16263 132.9375,11.4668 6.76498,-2.42855 11.90176,-3.73117 12.06055,-3.0586 0.15211,0.6444 -0.30634,1.6636 -1.01953,2.26563 -0.71322,0.60214 -5.0533,4.33995 -9.64453,8.30468 -62.51082,53.98087 -149.16323,42.60325 -170.53125,-22.39062 -11.77871,-35.82663 4.41382,-75.70841 37.23047,-91.70117 9.59069,-4.6739 9.38198,-4.13262 2.81836,-7.33594 -36.90457,-18.01096 -52.59492,-53.78508 -39.96289,-91.11914 20.43883,-60.40729 90.81124,-77.20073 157.28515,-37.5332 13.40549,7.99951 13.12673,8.08873 6.96875,-2.20313 -18.65012,-31.17015 -27.47357,-70.38848 -21.72461,-96.55078 10.21804,-46.50033 52.17192,-71.05082 90.14063,-66.98633 z m -10.56836,41.09571 c 26.93966,-1.93047 49.9637,27.77122 49.46875,73.66992 -0.10991,10.19174 -0.22095,21.73422 -0.24805,25.65039 -0.0702,10.15877 -1.63384,8.32644 -12.07031,-14.14258 -24.91718,-53.64516 -29.04328,-60.46541 -38.2168,-63.20313 -4.0865,-1.21947 -5.60894,-0.37065 -3.36328,1.875 2.38019,2.38019 13.16542,24.78558 21.16406,43.96485 3.94871,9.46822 11.13361,26.4392 15.9668,37.71484 10.9789,25.61318 18.78644,54.4577 15.60156,57.64258 -1.47312,1.47311 -8.46575,-10.37531 -27.13476,-45.97851 -5.13647,-9.7956 -12.1507,-22.19076 -15.58789,-27.54493 -11.13397,-17.34405 -13.7451,-21.71377 -18.78907,-31.44726 -5.60441,-10.81522 -6.88039,-11.28674 -4.78906,-1.76953 2.97559,13.54117 10.79732,31.18384 39.91016,90.0039 9.7872,19.77437 18.81457,38.58862 20.06054,41.81055 4.72893,12.22807 1.26884,9.9612 -19.35156,-12.67969 -68.74005,-75.4758 -85.68567,-130.40171 -50.14062,-162.52148 9.12398,-8.24476 18.53964,-12.40143 27.51953,-13.04492 z m 144.85351,0.83203 c 24.77215,1.66571 45.43039,22.10566 45.10157,54.62695 -0.1359,13.43588 -4.72871,31.25095 -9.88477,38.33984 -1.47385,2.02633 -4.30974,7.23383 -6.30078,11.57422 -8.44284,18.40484 -24.74205,42.21505 -43.31055,63.26367 -15.15036,17.17401 -34.61095,36.56574 -35.00781,34.88477 -0.6299,-2.66849 10.83104,-31.13682 18.33398,-45.54102 7.02645,-13.48934 24.1109,-39.33215 36.3125,-54.92773 7.85493,-10.03981 2.55986,-6.99175 -13.69726,7.88672 -16.13446,14.7662 -37.07248,43.78503 -46.44922,64.37305 -3.38087,7.42315 -4.55982,7.06665 -4.2207,-1.27735 0.81794,-20.12471 15.1466,-46.52834 40.51953,-74.66015 21.14598,-23.44526 28.21085,-33.56411 32.46094,-46.49414 3.20066,-9.73741 1.92321,-14.98038 -1.68946,-6.93555 -2.48317,5.52974 -10.01026,14.52638 -29.6582,35.44922 -15.06413,16.04159 -23.21376,25.43982 -30.54297,35.21875 -10.81699,14.43246 -12.37135,15.65226 -11.82226,9.27539 0.88335,-10.2596 7.31926,-24.06411 17.41015,-37.3418 22.09735,-29.07592 26.99964,-36.46259 32.08985,-48.35156 10.45012,-24.40796 3.69093,-28.33009 -8.11133,-4.70703 -7.17995,14.37109 -11.6302,20.97561 -24.91992,36.98242 -5.99828,7.22462 -12.06276,14.68232 -13.47657,16.57422 -4.41576,5.90897 -6.57725,-8.45512 -4.0039,-26.61328 0.67956,-4.79542 0.4407,-6.09745 -1.42188,-7.72852 -4.71447,-4.12858 4.17658,-22.61785 16.90039,-35.14648 14.18178,-13.96425 30.52539,-19.72404 45.38867,-18.72461 z m 148.88868,104.52539 c 11.72906,0.85474 22.69746,3.30804 31.51562,7.60547 56.43972,27.50522 58.73893,111.20329 3.77734,137.52539 -10.33873,4.95144 -10.27577,4.45815 -1.18359,9.0332 41.27477,20.76912 54.13459,67.76667 29.52344,107.89844 -25.08471,40.9038 -84.90357,51.78575 -120.33008,21.88867 -13.42922,-11.33321 -10.76175,-14.07566 10.27734,-10.56445 94.56939,15.78263 125.44203,-76.2906 37.84961,-112.88086 -10.41051,-4.34878 -16.27496,-4.60225 -111.53125,-4.83399 -95.05755,-0.23124 -94.75048,-0.21297 -93.46289,-5.82617 0.86517,-3.77162 7.47812,-4.22099 66.0918,-4.49609 91.78977,-0.43082 99.71696,-1.33709 114.16992,-13.05469 6.1333,-4.97252 5.1976,-5.33101 -7.32617,-2.8125 -20.36409,4.09514 -28.75954,3.25582 -19.11914,-1.91016 2.40629,-1.28934 11.84438,-6.96498 20.97461,-12.61328 9.13022,-5.64829 22.82323,-13.91162 30.42773,-18.36328 14.21758,-8.32285 19.06313,-12.6118 18.69727,-16.54883 -0.34605,-3.72361 -24.79992,7.92505 -51.65234,24.60547 -25.12815,15.60937 -57.53633,28.16484 -64.58985,25.02344 -1.88713,-0.84046 -1.75258,-0.94531 7.00195,-5.53711 20.83055,-10.92597 45.77905,-28.70776 66.46875,-47.375 7.97341,-7.19403 15.56342,-13.76437 16.86719,-14.59961 3.80395,-2.43711 1.35778,-3.25172 -4.24023,-1.41211 -9.07041,2.98081 -20.62414,9.69053 -34.66797,20.13477 -36.98688,27.50685 -67.49672,43.42342 -92.24024,48.11914 -16.46798,3.12521 -15.63332,1.39957 4.14844,-8.56055 36.85924,-18.55861 72.81949,-43.58979 75.31446,-52.42578 0.68292,-2.41871 1.58951,-2.89362 -11.14649,5.85156 -14.97774,10.28447 -35.85951,20.02352 -84.40625,39.37109 -22.11417,8.81324 -22.95636,8.59249 -10.36523,-2.72265 33.94356,-30.50373 69.20665,-52.97104 101.40234,-64.60547 3.14243,-1.13556 6.40947,-2.75443 7.25977,-3.59766 0.85054,-0.84296 4.76281,-2.54427 8.69336,-3.78125 86.84402,-27.33169 126.14284,53.79254 46.79882,96.60547 -7.92772,4.27765 -0.2706,6.46285 9.92969,2.83399 31.36433,-11.15807 49.86655,-46.08726 39.64258,-74.8418 -13.74586,-38.65947 -55.86524,-49.08176 -114.63281,-28.36523 -18.45482,6.50561 -21.08573,5.42805 -14.5,-5.93555 11.344,-19.57399 53.37529,-31.39626 88.5625,-28.83203 z m -415.60938,34.73047 c 18.40706,0.70258 37.96964,7.04184 54.0293,19.82421 3.67459,2.92479 7.08666,5.41238 7.58203,5.5293 4.79705,1.13242 39.41789,28.72749 57.76953,46.04492 14.86237,14.02473 16.3451,15.94682 11.97852,15.54102 -3.99988,-0.37172 -21.22362,-8.17085 -54.7168,-24.77734 -50.52331,-25.05039 -68.29491,-32.58054 -84.18164,-35.66993 -7.99405,-1.55458 -7.70799,-0.65451 1.0957,3.44141 4.22513,1.96579 11.31316,5.85495 15.75,8.64453 22.24359,13.98558 30.27038,18.67873 43.82617,25.62109 18.68723,9.57038 42.3572,22.66504 46.60352,25.78126 l 3.26367,2.39453 -3.56445,0.15039 c -8.41927,0.35817 -30.90169,-5.23963 -44.25781,-11.01953 -4.07159,-1.76204 -12.50347,-5.42273 -18.73633,-8.13477 -6.23286,-2.71203 -16.55876,-6.93513 -22.94727,-9.38477 -17.00938,-6.52215 -41.29631,-17.68434 -47.36719,-21.76953 -6.17805,-4.15742 -8.06805,-3.4315 -5.75195,2.20899 3.67033,8.93884 14.64566,15.45289 57.80469,34.3125 31.96389,13.96747 31.99131,13.73735 -1.84961,14.94726 -51.81041,1.85244 -80.79848,-18.41808 -77.17188,-53.96289 2.6943,-26.4071 30.16338,-40.89362 60.8418,-39.72265 z m -5.0039,123.10547 c 0.74544,0.25449 0.70792,0.90339 -0.4043,2.01562 -1.89702,1.89702 0.71562,2.86619 6.36328,2.36133 22.00315,-1.96676 33.23022,1.15788 24.57617,6.83984 -2.97652,1.95428 -10.37646,7.49778 -16.44531,12.31836 -15.07797,11.97662 -25.20916,18.69547 -37.21289,24.67969 -12.64215,6.30249 -21.03368,15.16984 -12.83789,13.5664 15.93563,-3.1176 33.65808,-12.95816 61.77344,-34.30078 18.48137,-14.02937 31.69535,-20.38771 43.34374,-20.85742 6.78944,-0.2737 6.66616,0.42008 -0.9746,5.44727 -13.29354,8.7464 -25.54208,18.87351 -45.95118,37.99023 -18.67532,17.49273 -28.14691,25.3325 -36.94531,30.58203 -3.54853,2.11723 -1.70512,3.19723 3.40625,1.99414 13.18219,-3.10274 25.08842,-10.39044 42.76953,-26.17382 32.96288,-29.42495 51.81215,-41.62508 73.6875,-47.69922 17.69738,-4.91404 22.47018,-2.6561 9.32227,4.41015 -29.77516,16.00247 -44.50103,26.68148 -60.88867,44.15235 -17.10519,18.23583 -18.83458,22.34039 -4.83203,11.47656 28.27292,-21.93544 62.15801,-41.11537 87.0371,-49.26563 8.73405,-2.86122 10.91124,-3.15009 10.51954,-1.40039 -0.18631,0.83235 -0.54602,1.62172 -0.80079,1.75586 -0.25478,0.13413 -8.80241,8.13476 -18.99414,17.77735 -29.58206,27.98812 -60.52235,50.28744 -81.49804,58.74023 -3.72895,1.50265 -7.39108,3.34225 -8.13672,4.08789 -5.10701,5.10701 -30.22903,11.49522 -43.23828,10.99414 -59.65181,-2.29759 -69.03456,-75.11105 -13.52539,-104.96289 8.37591,-4.50441 17.65037,-7.29279 19.88672,-6.52929 z m 200.98437,0.71289 c 2.84658,1.83906 3.06661,13.84805 2.98047,54.32226 -0.26403,124.14874 0.5399,143.69298 6.43164,156.24609 39.21632,83.55441 125.63843,49.34182 109.95117,-43.52734 -3.40366,-20.14962 1.75014,-20.63613 14.17774,-1.33984 16.43555,25.51945 18.16857,53.24974 5.04687,80.77929 -27.44375,57.57813 -114.23444,57.11623 -138.76953,-0.73828 -2.80693,-6.61893 -2.56402,-6.6618 -6.19141,1.09961 -31.57002,67.54771 -131.39128,51.75328 -146.52148,-23.18359 -5.28273,-26.16448 6.31292,-77.10452 20.83984,-91.54688 14.208,-14.12531 22.3348,-13.13795 16.41211,1.99414 -23.88586,61.02694 -14.56237,106.27509 24.87695,120.73438 29.78875,10.92119 72.81164,-13.71702 77.73438,-44.51758 2.01306,-12.59518 -0.71081,-13.5039 -6.4043,-2.13476 -25.50941,50.93906 -81.6171,53.59951 -97.16797,4.60742 -4.68662,-14.76501 -2.38589,-45.96212 4.23633,-57.46289 1.13687,-1.97439 3.75694,-8.11602 5.82422,-13.64844 12.36905,-33.10211 40.50384,-76.25727 67.07617,-102.88477 8.58342,-8.60124 8.6218,-8.3519 1.47852,9.93164 -22.39842,57.32992 -29.4429,71.78547 -46.30274,95.03907 -5.33793,7.36225 1.55898,2.36338 10.98243,-7.96094 13.82554,-15.14728 23.52775,-30.14659 40.57031,-62.72266 10.28448,-19.65834 11.30966,-20.79957 10.73047,-11.94922 -1.78023,27.20165 -16.24209,55.86547 -49.5586,98.22657 -10.55342,13.41832 -16.44973,23.00483 -19.8789,32.32422 -3.19188,8.67449 -3.24641,12.09214 -0.12305,7.625 1.08562,-1.55273 8.17844,-9.66539 15.76172,-18.02735 23.47289,-25.8834 29.98618,-34.76984 45.30273,-61.81445 8.93598,-15.77823 9.92624,-16.08899 7.54493,-2.36328 -3.08843,17.80104 -11.15856,35.38063 -27.60938,60.14843 -8.4007,12.64759 -24.0224,42.10257 -24.6875,46.54688 -0.83687,5.59186 7.07418,0.0504 13.03516,-9.13086 11.34014,-17.46651 33.49209,-53.03874 39.48242,-63.40039 4.4484,-7.69444 1.93936,18.23899 -2.87695,29.73633 -1.14912,2.74308 3.29897,0.51819 6.0996,-3.05078 11.29043,-14.38799 11.41847,-15.60626 11.83594,-113.09766 0.25407,-59.32372 0.41009,-61.91409 3.8711,-63.98633 1.61891,-0.96931 2.85973,-1.48606 3.80859,-0.87304 z m 158.68359,8.87109 c 65.63915,-2.85351 106.32442,27.54838 91.38086,68.2832 -4.94292,13.47418 -21.57424,26.24757 -36.84179,28.29492 -40.6125,5.44628 -86.77172,-20.49347 -151.7168,-85.25781 -6.4843,-6.4662 2.76164,-4.13123 18.24805,4.60938 59.57736,33.62571 100.18621,52.01836 119.09961,53.9414 3.29999,0.33552 3.02415,0.1163 -4.81836,-3.81054 -4.57661,-2.29152 -14.30904,-7.83289 -21.62696,-12.31446 -18.54703,-11.35818 -27.70008,-16.65096 -47.15625,-27.26562 -25.32097,-13.81424 -39.37683,-22.91223 -37.8125,-24.47656 3.73833,-3.73833 43.05649,9.06789 74.19532,24.16601 5.26603,2.55329 18.4651,8.44745 29.33007,13.09766 21.26261,9.10053 34.15514,15.46763 36.91993,18.23242 2.7495,2.74951 3.38527,0.65158 1.37695,-4.54297 -2.71126,-7.01243 -8.91477,-11.8742 -24.43164,-19.14453 -66.4396,-31.12987 -68.76115,-32.82948 -46.14649,-33.8125 z m -134.44726,49.39258 c 2.51033,1.60589 8.30216,7.27068 18.99414,18.03125 62.78855,63.19003 84.18346,119.2663 58.57617,153.53125 -2.25185,3.01311 -4.44276,5.76575 -4.86914,6.11718 -38.20812,31.44522 -81.95346,-3.53525 -82.23828,-65.76171 -0.13718,-29.95626 2.10504,-39.41125 6.28906,-26.51172 0.7303,2.25128 4.02349,9.05464 7.31641,15.11914 3.29292,6.06435 9.19914,18.01177 13.125,26.55078 13.22457,28.76423 19.4138,37.28409 28.40429,39.0918 l 3.46289,0.69531 -3.73437,-5.45703 c -2.05436,-3.00146 -7.02124,-13.30838 -11.03711,-22.9043 -4.01594,-9.59586 -10.85704,-25.34539 -15.20312,-35 -16.10541,-35.77666 -21.24836,-49.36831 -25.49219,-67.37695 -2.26837,-9.62569 -2.2789,-12.66367 -0.0391,-10.42383 3.45272,3.45273 17.81056,26.0001 26.125,41.02539 5.37994,9.72214 12.82039,22.64741 16.5332,28.72266 11.81447,19.33227 18.10774,30.54722 20.77734,37.02148 5.80598,14.07997 4.75372,2.81546 -1.53125,-16.39258 -6.50651,-19.88495 -19.61724,-47.32281 -36.40429,-76.18554 -12.04958,-20.71728 -15.20689,-26.49325 -18.35352,-33.56446 -2.43884,-5.4806 -3.2115,-7.93401 -0.70117,-6.32812 z"
       inkscape:export-filename="../../Downloads/shamrock-bare.svg"
       inkscape:export-xdpi="96"
       inkscape:export-ydpi="96" />
  </g>
</svg>
